<?xml version="1.0" encoding="UTF-8"?>
<svg id="Layer_2" data-name="Layer 2" xmlns="http://www.w3.org/2000/svg" viewBox="0 0 121.34 123.98">
  <defs>
    <style>
      .cls-1 {
        fill: #60bd6b;
      }
    </style>
  </defs>
  <g id="Layer_1-2" data-name="Layer 1">
    <g>
      <g>
        <path class="cls-1" d="M76.9,66.05s-.02.09-.03.13h0c.17,1.37-.01,2.8-.59,4.11-.2.46-.45.91-.74,1.34-.62.9-1.41,1.64-2.28,2.19,3.89,4.74,6.73,10.44,8.1,16.81l7.82,6.15,9.47-1.66,4.34,3.43s.04-.02.06-.03c1.28-.43,2.66.26,3.09,1.53.43,1.28-.25,2.66-1.53,3.1-1.28.43-2.66-.26-3.09-1.54-.15-.44-.16-.89-.06-1.31l-3.43-2.71-6.39,1.12,11.84,9.32c.06-.02.12-.05.18-.07,1.28-.43,2.66.26,3.09,1.53.43,1.28-.26,2.66-1.54,3.09-1.27.43-2.66-.26-3.09-1.53-.13-.4-.16-.8-.09-1.19l-6.57-5.17.26,4.14,1.43,1.09c.05-.03.11-.04.16-.06,1.28-.43,2.66.26,3.09,1.53.43,1.28-.26,2.66-1.54,3.09-1.27.43-2.66-.26-3.09-1.53-.14-.4-.16-.81-.09-1.21l-2.23-1.7-.46-7.27-11.07-8.71c.95,7.55-.3,14.91-3.28,21.4,11.14,7.57,24.76,9.83,37.39,6.84,3.16-15.26-1.29-31.76-13.3-43.43-.87-.84-1.76-1.65-2.68-2.41,3.12-1.28,6.1-3.04,8.83-5.3,9.39-7.76,13.59-19.46,12.18-30.72-4.14-1.35-8.51-1.88-12.85-1.6-6.95.45-13.82,3.02-19.6,7.79-6.25,5.16-10.2,12.07-11.72,19.42ZM92.63,52.62c.89-1.01,2.44-1.11,3.44-.22,1.01.89,1.11,2.43.22,3.44-.75.85-1.97,1.06-2.94.56l-3.9,2.94-.6,6.55,13.89-11.22c-.13-.71.05-1.47.56-2.06.32-.36.72-.6,1.15-.72.77-.23,1.64-.07,2.3.51,1.01.89,1.11,2.43.22,3.44-.71.81-1.83,1.03-2.76.64l-4.57,3.69-11.28,9.12c-.83-.44-1.25-.69-2.03-1.12l.02-.24.89-9.82,4.81-3.62h0c-.08-.65.12-1.33.59-1.86Z"/>
        <path class="cls-1" d="M76.85,66.04s.03,0,.05,0c-.01.04-.02.09-.03.13,0-.05-.01-.09-.02-.13Z"/>
      </g>
      <g>
        <path class="cls-1" d="M0,78.7c11.63,10.37,28.15,14.76,44.26,10.19,1.16-.33,2.3-.7,3.42-1.11-.45,3.34-.41,6.8.18,10.29,2.02,12.01,10.06,21.5,20.51,25.91,3.23-2.91,5.89-6.43,7.81-10.33,3.08-6.24,4.3-13.48,3.06-20.86-1.17-6.97-4.37-13.09-8.89-17.86-1.17.2-2.39.13-3.56-.22-.76-.23-1.51-.58-2.2-1.06-1.95-1.34-3.1-3.4-3.35-5.59-.08-.62-.07-1.25,0-1.87-5.41.59-11,.08-16.48-1.69l-9.24,3.69-3.3,9.03-5.14,2.05s0,.05-.01.07c-.26,1.32-1.55,2.18-2.87,1.91-1.33-.26-2.18-1.55-1.91-2.87.26-1.32,1.55-2.17,2.87-1.91.46.09.85.3,1.17.6l4.07-1.62,2.23-6.09-13.99,5.59c-.01.07-.02.13-.03.2-.27,1.32-1.55,2.18-2.87,1.91-1.32-.27-2.17-1.55-1.91-2.87.26-1.32,1.55-2.17,2.87-1.91.41.08.77.27,1.07.52l7.76-3.1-3.71-1.84-1.65.69c0,.06-.02.11-.03.17-.27,1.32-1.55,2.18-2.87,1.91-1.32-.27-2.17-1.55-1.91-2.87.27-1.32,1.55-2.17,2.87-1.91.42.08.79.27,1.09.53l2.59-1.07,6.53,3.23,13.08-5.23c-7.02-2.95-12.77-7.72-16.9-13.54C12.49,55.6,3.72,66.28,0,78.7ZM61.94,80.16l8.06,5.68.73,5.98h0c.6.26,1.09.77,1.32,1.44.43,1.27-.26,2.66-1.54,3.09-1.28.43-2.66-.26-3.09-1.54-.36-1.08.07-2.23.99-2.82l-.59-4.85-5.38-3.79,2.77,17.64c.68.24,1.25.78,1.5,1.52.15.45.16.92.06,1.36-.18.78-.76,1.46-1.58,1.73-1.28.43-2.66-.26-3.09-1.53-.34-1.02.03-2.1.83-2.72l-.92-5.8-2.25-14.32c.72-.54,1.11-.78,1.79-1.36l.4.29Z"/>
        <path class="cls-1" d="M27.41,48.5c3.86,5.79,9.52,10.47,16.54,13.08,6.08,2.26,12.38,2.69,18.32,1.56.09-.16.19-.31.29-.46.86-1.25,2.02-2.18,3.31-2.74,1.87-.82,4.03-.9,6-.15.57.22,1.12.51,1.65.87s1.01.79,1.42,1.26c2.13-5.99,5.73-11.54,10.75-16.06l1.42-9.85-6.18-7.37.8-5.48s-.04-.03-.06-.04c-1.01-.89-1.1-2.43-.22-3.44.89-1.01,2.43-1.11,3.45-.22,1.01.89,1.1,2.43.21,3.45-.31.35-.69.58-1.1.71l-.63,4.33,4.16,4.97,2.15-14.91c-.05-.04-.1-.08-.16-.13-1.01-.89-1.11-2.43-.22-3.44.89-1.01,2.43-1.11,3.44-.22,1.01.89,1.11,2.44.22,3.44-.27.31-.61.54-.98.67l-1.19,8.27,3.45-2.3.24-1.78s-.09-.07-.14-.11c-1.01-.89-1.11-2.43-.22-3.44.89-1.01,2.43-1.11,3.44-.22,1.01.89,1.11,2.43.22,3.44-.28.32-.63.55-1,.68l-.37,2.78-6.06,4.03-2.01,13.94c6.06-4.6,13.06-7.19,20.18-7.86.99-13.43-3.87-26.36-12.77-35.79-14.79,4.89-26.85,17-30.96,33.23-.3,1.18-.54,2.35-.74,3.52-2.67-2.06-5.69-3.76-9.01-4.99-11.41-4.25-23.65-2.04-32.69,4.81.91,4.26,2.62,8.32,5.04,11.93ZM42.76,41.09c1.06.21,1.81,1.07,1.94,2.08l5.49,2.11,13.53,5.21c.11.89.13,1.31.28,2.19l-.45.23-8.95,4.14-5.54-2.36h0c-.52.39-1.21.56-1.9.42-1.32-.27-2.17-1.55-1.91-2.87.27-1.32,1.55-2.17,2.87-1.91,1.12.23,1.9,1.18,1.95,2.27l4.5,1.91,5.97-2.76-16.66-6.42c-.55.47-1.3.69-2.06.54-.47-.09-.88-.32-1.2-.63-.59-.55-.88-1.39-.71-2.24.27-1.32,1.56-2.18,2.87-1.91Z"/>
      </g>
    </g>
  </g>
</svg>