<svg width="122" height="124" viewBox="0 0 122 124" fill="none" xmlns="http://www.w3.org/2000/svg">
<g clip-path="url(#clip0_5_56)">
<path d="M76.8998 66.05C76.8998 66.05 76.8798 66.14 76.8698 66.18C77.0398 67.55 76.8598 68.98 76.2798 70.29C76.0798 70.75 75.8298 71.2 75.5398 71.63C74.9198 72.53 74.1298 73.27 73.2598 73.82C77.1498 78.56 79.9898 84.26 81.3598 90.63L89.1798 96.78L98.6498 95.12L102.99 98.55C102.99 98.55 103.03 98.53 103.05 98.52C104.33 98.09 105.71 98.78 106.14 100.05C106.57 101.33 105.89 102.71 104.61 103.15C103.33 103.58 101.95 102.89 101.52 101.61C101.37 101.17 101.36 100.72 101.46 100.3L98.0298 97.59L91.6398 98.71L103.48 108.03C103.54 108.01 103.6 107.98 103.66 107.96C104.94 107.53 106.32 108.22 106.75 109.49C107.18 110.77 106.49 112.15 105.21 112.58C103.94 113.01 102.55 112.32 102.12 111.05C101.99 110.65 101.96 110.25 102.03 109.86L95.4598 104.69L95.7198 108.83L97.1498 109.92C97.1998 109.89 97.2598 109.88 97.3098 109.86C98.5898 109.43 99.9698 110.12 100.4 111.39C100.83 112.67 100.14 114.05 98.8598 114.48C97.5898 114.91 96.1998 114.22 95.7698 112.95C95.6298 112.55 95.6098 112.14 95.6798 111.74L93.4498 110.04L92.9898 102.77L81.9198 94.06C82.8698 101.61 81.6198 108.97 78.6398 115.46C89.7798 123.03 103.4 125.29 116.03 122.3C119.19 107.04 114.74 90.54 102.73 78.87C101.86 78.03 100.97 77.22 100.05 76.46C103.17 75.18 106.15 73.42 108.88 71.16C118.27 63.4 122.47 51.7 121.06 40.44C116.92 39.09 112.55 38.56 108.21 38.84C101.26 39.29 94.3898 41.86 88.6098 46.63C82.3598 51.79 78.4098 58.7 76.8898 66.05H76.8998ZM92.6298 52.62C93.5198 51.61 95.0698 51.51 96.0698 52.4C97.0798 53.29 97.1798 54.83 96.2898 55.84C95.5398 56.69 94.3198 56.9 93.3498 56.4L89.4498 59.34L88.8498 65.89L102.74 54.67C102.61 53.96 102.79 53.2 103.3 52.61C103.62 52.25 104.02 52.01 104.45 51.89C105.22 51.66 106.09 51.82 106.75 52.4C107.76 53.29 107.86 54.83 106.97 55.84C106.26 56.65 105.14 56.87 104.21 56.48L99.6398 60.17L88.3598 69.29C87.5298 68.85 87.1098 68.6 86.3298 68.17L86.3498 67.93L87.2398 58.11L92.0498 54.49C91.9698 53.84 92.1698 53.16 92.6398 52.63L92.6298 52.62Z" fill="white"/>
<path d="M76.8496 66.04C76.8496 66.04 76.8796 66.04 76.8996 66.04C76.8896 66.08 76.8796 66.13 76.8696 66.17C76.8696 66.12 76.8596 66.08 76.8496 66.04Z" fill="white"/>
<path d="M0 78.7C11.63 89.07 28.15 93.46 44.26 88.89C45.42 88.56 46.56 88.19 47.68 87.78C47.23 91.12 47.27 94.58 47.86 98.07C49.88 110.08 57.92 119.57 68.37 123.98C71.6 121.07 74.26 117.55 76.18 113.65C79.26 107.41 80.48 100.17 79.24 92.79C78.07 85.82 74.87 79.7 70.35 74.93C69.18 75.13 67.96 75.06 66.79 74.71C66.03 74.48 65.28 74.13 64.59 73.65C62.64 72.31 61.49 70.25 61.24 68.06C61.16 67.44 61.17 66.81 61.24 66.19C55.83 66.78 50.24 66.27 44.76 64.5L35.52 68.19L32.22 77.22L27.08 79.27C27.08 79.27 27.08 79.32 27.07 79.34C26.81 80.66 25.52 81.52 24.2 81.25C22.87 80.99 22.02 79.7 22.29 78.38C22.55 77.06 23.84 76.21 25.16 76.47C25.62 76.56 26.01 76.77 26.33 77.07L30.4 75.45L32.63 69.36L18.64 74.95C18.63 75.02 18.62 75.08 18.61 75.15C18.34 76.47 17.06 77.33 15.74 77.06C14.42 76.79 13.57 75.51 13.83 74.19C14.09 72.87 15.38 72.02 16.7 72.28C17.11 72.36 17.47 72.55 17.77 72.8L25.53 69.7L21.82 67.86L20.17 68.55C20.17 68.61 20.15 68.66 20.14 68.72C19.87 70.04 18.59 70.9 17.27 70.63C15.95 70.36 15.1 69.08 15.36 67.76C15.63 66.44 16.91 65.59 18.23 65.85C18.65 65.93 19.02 66.12 19.32 66.38L21.91 65.31L28.44 68.54L41.52 63.31C34.5 60.36 28.75 55.59 24.62 49.77C12.49 55.6 3.72 66.28 0 78.7ZM61.94 80.16L70 85.84L70.73 91.82C71.33 92.08 71.82 92.59 72.05 93.26C72.48 94.53 71.79 95.92 70.51 96.35C69.23 96.78 67.85 96.09 67.42 94.81C67.06 93.73 67.49 92.58 68.41 91.99L67.82 87.14L62.44 83.35L65.21 100.99C65.89 101.23 66.46 101.77 66.71 102.51C66.86 102.96 66.87 103.43 66.77 103.87C66.59 104.65 66.01 105.33 65.19 105.6C63.91 106.03 62.53 105.34 62.1 104.07C61.76 103.05 62.13 101.97 62.93 101.35L62.01 95.55L59.76 81.23C60.48 80.69 60.87 80.45 61.55 79.87L61.95 80.16H61.94Z" fill="white"/>
<path d="M27.4099 48.5C31.2699 54.29 36.9299 58.97 43.9499 61.58C50.0299 63.84 56.3299 64.27 62.2699 63.14C62.3599 62.98 62.4599 62.83 62.5599 62.68C63.4199 61.43 64.5799 60.5 65.8699 59.94C67.7399 59.12 69.8999 59.04 71.8699 59.79C72.4399 60.01 72.9899 60.3 73.5199 60.66C74.0499 61.02 74.5299 61.45 74.9399 61.92C77.0699 55.93 80.6699 50.38 85.6899 45.86L87.1099 36.01L80.9299 28.64L81.7299 23.16C81.7299 23.16 81.6899 23.13 81.6699 23.12C80.6599 22.23 80.5699 20.69 81.4499 19.68C82.3399 18.67 83.8799 18.57 84.8999 19.46C85.9099 20.35 85.9999 21.89 85.1099 22.91C84.7999 23.26 84.4199 23.49 84.0099 23.62L83.3799 27.95L87.5399 32.92L89.6899 18.01C89.6399 17.97 89.5899 17.93 89.5299 17.88C88.5199 16.99 88.4199 15.45 89.3099 14.44C90.1999 13.43 91.7399 13.33 92.7499 14.22C93.7599 15.11 93.8599 16.66 92.9699 17.66C92.6999 17.97 92.3599 18.2 91.9899 18.33L90.7999 26.6L94.2499 24.3L94.4899 22.52C94.4899 22.52 94.3999 22.45 94.3499 22.41C93.3399 21.52 93.2399 19.98 94.1299 18.97C95.0199 17.96 96.5599 17.86 97.5699 18.75C98.5799 19.64 98.6799 21.18 97.7899 22.19C97.5099 22.51 97.1599 22.74 96.7899 22.87L96.4199 25.65L90.3599 29.68L88.3499 43.62C94.4099 39.02 101.41 36.43 108.53 35.76C109.52 22.33 104.66 9.39997 95.7599 -0.0300293C80.9699 4.85997 68.9099 16.97 64.7999 33.2C64.4999 34.38 64.2599 35.55 64.0599 36.72C61.3899 34.66 58.3699 32.96 55.0499 31.73C43.6399 27.48 31.3999 29.69 22.3599 36.54C23.2699 40.8 24.9799 44.86 27.3999 48.47L27.4099 48.5ZM42.7599 41.09C43.8199 41.3 44.5699 42.16 44.6999 43.17L50.1899 45.28L63.7199 50.49C63.8299 51.38 63.8499 51.8 63.9999 52.68L63.5499 52.91L54.5999 57.05L49.0599 54.69C48.5399 55.08 47.8499 55.25 47.1599 55.11C45.8399 54.84 44.9899 53.56 45.2499 52.24C45.5199 50.92 46.7999 50.07 48.1199 50.33C49.2399 50.56 50.0199 51.51 50.0699 52.6L54.5699 54.51L60.5399 51.75L43.8799 45.33C43.3299 45.8 42.5799 46.02 41.8199 45.87C41.3499 45.78 40.9399 45.55 40.6199 45.24C40.0299 44.69 39.7399 43.85 39.9099 43C40.1799 41.68 41.4699 40.82 42.7799 41.09H42.7599Z" fill="white"/>
</g>
<defs>
<clipPath id="clip0_5_56">
<rect width="121.34" height="123.98" fill="white"/>
</clipPath>
</defs>
</svg>
