<svg width="425" height="381" viewBox="0 0 425 381" fill="none" xmlns="http://www.w3.org/2000/svg">
<g clip-path="url(#clip0_5_176)">
<path d="M238.711 151.442C238.711 151.442 238.678 151.588 238.662 151.653C238.938 153.882 238.646 156.208 237.702 158.339C237.377 159.087 236.97 159.819 236.498 160.519C235.49 161.983 234.205 163.186 232.79 164.081C239.117 171.792 243.737 181.064 245.966 191.426L258.686 201.43L274.091 198.729L281.151 204.309C281.151 204.309 281.216 204.276 281.248 204.26C283.33 203.561 285.575 204.683 286.275 206.749C286.974 208.831 285.868 211.076 283.786 211.792C281.704 212.491 279.459 211.369 278.759 209.286C278.515 208.571 278.499 207.839 278.662 207.155L273.082 202.747L262.688 204.569L281.948 219.73C282.045 219.697 282.143 219.648 282.24 219.616C284.323 218.916 286.567 220.039 287.267 222.105C287.966 224.187 286.844 226.432 284.762 227.131C282.696 227.831 280.435 226.708 279.735 224.642C279.524 223.992 279.475 223.341 279.589 222.706L268.902 214.297L269.325 221.031L271.651 222.804C271.732 222.755 271.83 222.739 271.911 222.706C273.993 222.007 276.238 223.129 276.937 225.195C277.637 227.277 276.515 229.522 274.432 230.222C272.367 230.921 270.105 229.799 269.406 227.733C269.178 227.082 269.146 226.415 269.26 225.765L265.632 222.999L264.884 211.173L246.877 197.005C248.422 209.286 246.389 221.259 241.541 231.816C259.662 244.13 281.818 247.806 302.362 242.942C307.503 218.119 300.264 191.279 280.728 172.296C279.312 170.929 277.865 169.612 276.368 168.376C281.443 166.293 286.291 163.43 290.732 159.754C306.006 147.131 312.838 128.099 310.545 109.783C303.81 107.587 296.702 106.725 289.642 107.18C278.336 107.912 267.161 112.093 257.759 119.852C247.592 128.245 241.167 139.486 238.694 151.442H238.711ZM264.298 129.596C265.746 127.953 268.267 127.79 269.894 129.238C271.537 130.685 271.7 133.191 270.252 134.834C269.032 136.216 267.047 136.558 265.469 135.744L259.125 140.527L258.149 151.182L280.744 132.93C280.532 131.775 280.825 130.539 281.655 129.579C282.175 128.994 282.826 128.603 283.526 128.408C284.778 128.034 286.193 128.294 287.267 129.238C288.91 130.685 289.072 133.191 287.625 134.834C286.47 136.151 284.648 136.509 283.135 135.875L275.701 141.877L257.352 156.712C256.002 155.997 255.319 155.59 254.05 154.89L254.083 154.5L255.53 138.526L263.355 132.638C263.225 131.58 263.55 130.474 264.315 129.612L264.298 129.596Z" fill="#60BD6B"/>
<path d="M238.629 151.426C238.629 151.426 238.678 151.426 238.71 151.426C238.694 151.491 238.678 151.572 238.661 151.637C238.661 151.556 238.645 151.491 238.629 151.426Z" fill="#60BD6B"/>
<path d="M113.62 172.019C132.538 188.888 159.411 196.029 185.616 188.595C187.503 188.058 189.358 187.456 191.179 186.79C190.447 192.223 190.513 197.851 191.472 203.528C194.758 223.064 207.837 238.502 224.835 245.675C230.09 240.942 234.416 235.216 237.54 228.872C242.55 218.721 244.534 206.944 242.517 194.939C240.614 183.601 235.409 173.646 228.056 165.887C226.153 166.212 224.168 166.098 222.265 165.529C221.029 165.155 219.809 164.585 218.687 163.805C215.515 161.625 213.644 158.274 213.237 154.711C213.107 153.703 213.123 152.678 213.237 151.67C204.437 152.629 195.344 151.8 186.43 148.921L171.399 154.923L166.031 169.612L157.67 172.947C157.67 172.947 157.67 173.028 157.654 173.06C157.231 175.208 155.132 176.607 152.985 176.167C150.822 175.744 149.439 173.646 149.878 171.499C150.301 169.352 152.4 167.969 154.547 168.392C155.295 168.538 155.929 168.88 156.45 169.368L163.071 166.733L166.698 156.826L143.941 165.919C143.925 166.033 143.908 166.131 143.892 166.245C143.453 168.392 141.371 169.791 139.223 169.352C137.076 168.912 135.694 166.83 136.117 164.683C136.539 162.536 138.638 161.153 140.785 161.576C141.452 161.706 142.038 162.015 142.526 162.422L155.149 157.379L149.114 154.386L146.43 155.509C146.43 155.606 146.397 155.687 146.381 155.785C145.942 157.932 143.86 159.331 141.712 158.892C139.565 158.453 138.182 156.371 138.605 154.223C139.045 152.076 141.127 150.694 143.274 151.117C143.957 151.247 144.559 151.556 145.047 151.979L149.26 150.238L159.882 155.492L181.159 146.985C169.74 142.186 160.387 134.427 153.668 124.96C133.937 134.443 119.671 151.816 113.62 172.019ZM214.376 174.394L227.487 183.634L228.674 193.361C229.65 193.784 230.447 194.614 230.822 195.704C231.521 197.77 230.399 200.031 228.316 200.73C226.234 201.43 223.99 200.307 223.29 198.225C222.704 196.468 223.404 194.598 224.9 193.638L223.941 185.748L215.189 179.583L219.695 208.278C220.801 208.668 221.728 209.547 222.135 210.75C222.379 211.482 222.395 212.247 222.233 212.963C221.94 214.232 220.996 215.338 219.663 215.777C217.58 216.476 215.336 215.354 214.636 213.288C214.083 211.629 214.685 209.872 215.986 208.863L214.49 199.429L210.83 176.135C212.001 175.256 212.635 174.866 213.741 173.923L214.392 174.394H214.376Z" fill="#60BD6B"/>
<path d="M158.207 122.894C164.486 132.312 173.693 139.925 185.112 144.171C195.002 147.847 205.25 148.546 214.913 146.708C215.059 146.448 215.222 146.204 215.385 145.96C216.783 143.927 218.67 142.414 220.769 141.503C223.811 140.169 227.324 140.039 230.529 141.259C231.456 141.617 232.351 142.088 233.213 142.674C234.075 143.26 234.856 143.959 235.523 144.724C238.988 134.98 244.844 125.952 253.009 118.599L255.319 102.577L245.267 90.588L246.568 81.6738C246.568 81.6738 246.503 81.625 246.47 81.6087C244.827 80.161 244.681 77.6559 246.112 76.013C247.56 74.37 250.065 74.2073 251.724 75.6551C253.367 77.1028 253.514 79.6079 252.066 81.2671C251.562 81.8364 250.944 82.2106 250.277 82.4221L249.252 89.4656L256.019 97.5501L259.516 73.2964C259.435 73.2313 259.354 73.1663 259.256 73.0849C257.613 71.6372 257.45 69.1321 258.898 67.4892C260.346 65.8462 262.851 65.6836 264.494 67.1313C266.137 68.579 266.299 71.1004 264.852 72.7271C264.412 73.2313 263.859 73.6055 263.258 73.8169L261.322 87.2695L266.934 83.5282L267.324 80.6327C267.324 80.6327 267.178 80.5188 267.096 80.4538C265.454 79.006 265.291 76.501 266.739 74.858C268.186 73.2151 270.691 73.0524 272.334 74.5001C273.977 75.9479 274.14 78.453 272.692 80.0959C272.237 80.6164 271.667 80.9906 271.066 81.202L270.464 85.7242L260.606 92.2797L257.336 114.956C267.194 107.473 278.581 103.26 290.163 102.17C291.773 80.3236 283.868 59.2907 269.39 43.9512C245.332 51.9056 225.714 71.6047 219.028 98.0056C218.54 99.9251 218.15 101.828 217.825 103.731C213.481 100.381 208.569 97.6152 203.168 95.6144C184.608 88.701 164.697 92.296 149.992 103.439C151.472 110.368 154.254 116.973 158.191 122.845L158.207 122.894ZM183.176 110.84C184.901 111.182 186.121 112.581 186.332 114.224L195.263 117.656L217.271 126.131C217.45 127.579 217.483 128.262 217.727 129.693L216.995 130.067L202.436 136.802L193.424 132.963C192.579 133.597 191.456 133.874 190.334 133.646C188.187 133.207 186.804 131.125 187.227 128.977C187.666 126.83 189.748 125.448 191.895 125.871C193.717 126.245 194.986 127.79 195.067 129.563L202.387 132.67L212.099 128.18L184.998 117.737C184.104 118.502 182.884 118.86 181.647 118.616C180.883 118.469 180.216 118.095 179.695 117.591C178.736 116.696 178.264 115.33 178.54 113.947C178.98 111.8 181.078 110.401 183.209 110.84H183.176Z" fill="#60BD6B"/>
</g>
<path d="M347.816 307.941C349.305 313.322 353.341 316.013 359.924 316.013C364.161 316.013 367.367 314.582 369.542 311.719L378.473 316.872C374.236 322.997 367.996 326.06 359.753 326.06C352.654 326.06 346.958 323.913 342.664 319.62C338.37 315.326 336.224 309.916 336.224 303.39C336.224 296.921 338.342 291.539 342.578 287.246C346.815 282.895 352.253 280.72 358.894 280.72C365.191 280.72 370.372 282.895 374.437 287.246C378.559 291.597 380.62 296.978 380.62 303.39C380.62 304.821 380.476 306.338 380.19 307.941H347.816ZM347.645 299.354H369.542C368.912 296.434 367.596 294.259 365.592 292.828C363.646 291.396 361.413 290.681 358.894 290.681C355.917 290.681 353.455 291.454 351.509 292.999C349.562 294.488 348.274 296.606 347.645 299.354Z" fill="#60BD6B"/>
<path d="M323.117 281.922H335.311L318.996 324.858H306.372L290.057 281.922H302.25L312.641 311.977L323.117 281.922Z" fill="#60BD6B"/>
<path d="M282.657 319.534C278.248 323.885 272.867 326.06 266.513 326.06C260.158 326.06 254.777 323.885 250.369 319.534C246.018 315.126 243.842 309.744 243.842 303.39C243.842 297.035 246.018 291.683 250.369 287.332C254.777 282.924 260.158 280.72 266.513 280.72C272.867 280.72 278.248 282.924 282.657 287.332C287.065 291.683 289.269 297.035 289.269 303.39C289.269 309.744 287.065 315.126 282.657 319.534ZM258.183 311.891C260.416 314.124 263.192 315.24 266.513 315.24C269.833 315.24 272.609 314.124 274.842 311.891C277.075 309.659 278.191 306.825 278.191 303.39C278.191 299.955 277.075 297.121 274.842 294.888C272.609 292.656 269.833 291.539 266.513 291.539C263.192 291.539 260.416 292.656 258.183 294.888C256.008 297.121 254.92 299.955 254.92 303.39C254.92 306.825 256.008 309.659 258.183 311.891Z" fill="#60BD6B"/>
<path d="M228.656 289.307C229.686 286.559 231.375 284.498 233.722 283.124C236.127 281.75 238.789 281.063 241.708 281.063V293.429C238.331 293.028 235.296 293.715 232.606 295.49C229.972 297.264 228.656 300.213 228.656 304.334V324.858H217.578V281.922H228.656V289.307Z" fill="#60BD6B"/>
<path d="M197.233 281.922H208.052V322.797C208.052 329.438 205.848 334.504 201.44 337.996C197.089 341.488 191.823 343.235 185.64 343.235C181.003 343.235 176.909 342.347 173.36 340.573C169.868 338.798 167.177 336.193 165.288 332.758L174.734 327.348C176.909 331.356 180.659 333.359 185.983 333.359C189.475 333.359 192.223 332.443 194.227 330.611C196.231 328.779 197.233 326.175 197.233 322.797V318.16C193.969 322.511 189.39 324.686 183.493 324.686C177.425 324.686 172.33 322.568 168.208 318.332C164.143 314.038 162.111 308.828 162.111 302.703C162.111 296.635 164.172 291.454 168.294 287.16C172.416 282.866 177.482 280.72 183.493 280.72C189.39 280.72 193.969 282.895 197.233 287.246V281.922ZM176.537 311.204C178.827 313.38 181.718 314.467 185.21 314.467C188.703 314.467 191.565 313.38 193.798 311.204C196.088 308.972 197.233 306.138 197.233 302.703C197.233 299.325 196.088 296.549 193.798 294.373C191.565 292.141 188.703 291.024 185.21 291.024C181.718 291.024 178.827 292.141 176.537 294.373C174.305 296.549 173.188 299.325 173.188 302.703C173.188 306.138 174.305 308.972 176.537 311.204Z" fill="#60BD6B"/>
<path d="M158.394 292.57H148.69V310.431C148.69 311.92 149.062 313.008 149.806 313.694C150.551 314.381 151.638 314.782 153.069 314.897C154.501 314.954 156.275 314.925 158.394 314.811V324.858C150.78 325.717 145.398 325.001 142.25 322.711C139.158 320.421 137.612 316.328 137.612 310.431V292.57H130.142V281.922H137.612V273.249L148.69 269.9V281.922H158.394V292.57Z" fill="#60BD6B"/>
<path d="M118.633 276.769C116.801 276.769 115.198 276.111 113.824 274.794C112.507 273.42 111.849 271.817 111.849 269.986C111.849 268.154 112.507 266.551 113.824 265.177C115.198 263.803 116.801 263.116 118.633 263.116C120.522 263.116 122.125 263.803 123.441 265.177C124.815 266.551 125.502 268.154 125.502 269.986C125.502 271.817 124.815 273.42 123.441 274.794C122.125 276.111 120.522 276.769 118.633 276.769ZM113.137 324.858V281.922H124.214V324.858H113.137Z" fill="#60BD6B"/>
<path d="M105.742 292.57V297.207C105.742 305.794 102.994 312.75 97.4984 318.074C92.0026 323.398 84.9038 326.06 76.2021 326.06C66.9279 326.06 59.228 323.055 53.1025 317.044C47.0342 310.975 44 303.59 44 294.888C44 286.13 47.0055 278.716 53.0166 272.648C59.0849 266.579 66.5844 263.545 75.5151 263.545C81.1254 263.545 86.2491 264.833 90.8862 267.409C95.5233 269.928 99.13 273.306 101.706 277.542L91.5732 283.382C90.142 280.92 87.9666 278.916 85.0469 277.371C82.1845 275.825 78.9786 275.052 75.4292 275.052C69.7044 275.052 64.9814 276.941 61.2603 280.72C57.5964 284.441 55.7645 289.164 55.7645 294.888C55.7645 300.556 57.6251 305.25 61.3462 308.972C65.1246 312.635 70.1052 314.467 76.288 314.467C80.8678 314.467 84.6462 313.465 87.6231 311.462C90.6572 309.401 92.7182 306.596 93.8059 303.046H75.601V292.57H105.742Z" fill="#60BD6B"/>
<defs>
<clipPath id="clip0_5_176">
<rect width="197.381" height="201.675" fill="white" transform="translate(113.62 44)"/>
</clipPath>
</defs>
</svg>
