<svg width="481" height="124" viewBox="0 0 481 124" fill="none" xmlns="http://www.w3.org/2000/svg">
<g clip-path="url(#clip0_5_136)">
<path d="M76.9 66.05C76.9 66.05 76.88 66.14 76.87 66.18C77.04 67.55 76.86 68.98 76.28 70.29C76.08 70.75 75.83 71.2 75.54 71.63C74.92 72.53 74.13 73.27 73.26 73.82C77.15 78.56 79.99 84.26 81.36 90.63L89.18 96.78L98.65 95.12L102.99 98.55C102.99 98.55 103.03 98.53 103.05 98.52C104.33 98.09 105.71 98.78 106.14 100.05C106.57 101.33 105.89 102.71 104.61 103.15C103.33 103.58 101.95 102.89 101.52 101.61C101.37 101.17 101.36 100.72 101.46 100.3L98.03 97.59L91.64 98.71L103.48 108.03C103.54 108.01 103.6 107.98 103.66 107.96C104.94 107.53 106.32 108.22 106.75 109.49C107.18 110.77 106.49 112.15 105.21 112.58C103.94 113.01 102.55 112.32 102.12 111.05C101.99 110.65 101.96 110.25 102.03 109.86L95.46 104.69L95.72 108.83L97.15 109.92C97.2 109.89 97.26 109.88 97.31 109.86C98.59 109.43 99.97 110.12 100.4 111.39C100.83 112.67 100.14 114.05 98.86 114.48C97.59 114.91 96.2 114.22 95.77 112.95C95.63 112.55 95.61 112.14 95.68 111.74L93.45 110.04L92.99 102.77L81.92 94.06C82.87 101.61 81.62 108.97 78.64 115.46C89.78 123.03 103.4 125.29 116.03 122.3C119.19 107.04 114.74 90.54 102.73 78.87C101.86 78.03 100.97 77.22 100.05 76.46C103.17 75.18 106.15 73.42 108.88 71.16C118.27 63.4 122.47 51.7 121.06 40.44C116.92 39.09 112.55 38.56 108.21 38.84C101.26 39.29 94.39 41.86 88.61 46.63C82.36 51.79 78.41 58.7 76.89 66.05H76.9ZM92.63 52.62C93.52 51.61 95.07 51.51 96.07 52.4C97.08 53.29 97.18 54.83 96.29 55.84C95.54 56.69 94.32 56.9 93.35 56.4L89.45 59.34L88.85 65.89L102.74 54.67C102.61 53.96 102.79 53.2 103.3 52.61C103.62 52.25 104.02 52.01 104.45 51.89C105.22 51.66 106.09 51.82 106.75 52.4C107.76 53.29 107.86 54.83 106.97 55.84C106.26 56.65 105.14 56.87 104.21 56.48L99.64 60.17L88.36 69.29C87.53 68.85 87.11 68.6 86.33 68.17L86.35 67.93L87.24 58.11L92.05 54.49C91.97 53.84 92.17 53.16 92.64 52.63L92.63 52.62Z" fill="black"/>
<path d="M76.8501 66.04C76.8501 66.04 76.8801 66.04 76.9001 66.04C76.8901 66.08 76.8801 66.13 76.8701 66.17C76.8701 66.12 76.8601 66.08 76.8501 66.04Z" fill="black"/>
<path d="M0 78.7C11.63 89.07 28.15 93.46 44.26 88.89C45.42 88.56 46.56 88.19 47.68 87.78C47.23 91.12 47.27 94.58 47.86 98.07C49.88 110.08 57.92 119.57 68.37 123.98C71.6 121.07 74.26 117.55 76.18 113.65C79.26 107.41 80.48 100.17 79.24 92.79C78.07 85.82 74.87 79.7 70.35 74.93C69.18 75.13 67.96 75.06 66.79 74.71C66.03 74.48 65.28 74.13 64.59 73.65C62.64 72.31 61.49 70.25 61.24 68.06C61.16 67.44 61.17 66.81 61.24 66.19C55.83 66.78 50.24 66.27 44.76 64.5L35.52 68.19L32.22 77.22L27.08 79.27C27.08 79.27 27.08 79.32 27.07 79.34C26.81 80.66 25.52 81.52 24.2 81.25C22.87 80.99 22.02 79.7 22.29 78.38C22.55 77.06 23.84 76.21 25.16 76.47C25.62 76.56 26.01 76.77 26.33 77.07L30.4 75.45L32.63 69.36L18.64 74.95C18.63 75.02 18.62 75.08 18.61 75.15C18.34 76.47 17.06 77.33 15.74 77.06C14.42 76.79 13.57 75.51 13.83 74.19C14.09 72.87 15.38 72.02 16.7 72.28C17.11 72.36 17.47 72.55 17.77 72.8L25.53 69.7L21.82 67.86L20.17 68.55C20.17 68.61 20.15 68.66 20.14 68.72C19.87 70.04 18.59 70.9 17.27 70.63C15.95 70.36 15.1 69.08 15.36 67.76C15.63 66.44 16.91 65.59 18.23 65.85C18.65 65.93 19.02 66.12 19.32 66.38L21.91 65.31L28.44 68.54L41.52 63.31C34.5 60.36 28.75 55.59 24.62 49.77C12.49 55.6 3.72 66.28 0 78.7ZM61.94 80.16L70 85.84L70.73 91.82C71.33 92.08 71.82 92.59 72.05 93.26C72.48 94.53 71.79 95.92 70.51 96.35C69.23 96.78 67.85 96.09 67.42 94.81C67.06 93.73 67.49 92.58 68.41 91.99L67.82 87.14L62.44 83.35L65.21 100.99C65.89 101.23 66.46 101.77 66.71 102.51C66.86 102.96 66.87 103.43 66.77 103.87C66.59 104.65 66.01 105.33 65.19 105.6C63.91 106.03 62.53 105.34 62.1 104.07C61.76 103.05 62.13 101.97 62.93 101.35L62.01 95.55L59.76 81.23C60.48 80.69 60.87 80.45 61.55 79.87L61.95 80.16H61.94Z" fill="black"/>
<path d="M27.4101 48.5C31.2701 54.29 36.9301 58.97 43.9501 61.58C50.0301 63.84 56.3301 64.27 62.2701 63.14C62.3601 62.98 62.4601 62.83 62.5601 62.68C63.4201 61.43 64.5801 60.5 65.8701 59.94C67.7401 59.12 69.9001 59.04 71.8701 59.79C72.4401 60.01 72.9901 60.3 73.5201 60.66C74.0501 61.02 74.5301 61.45 74.9401 61.92C77.0701 55.93 80.6701 50.38 85.6901 45.86L87.1101 36.01L80.9301 28.64L81.7301 23.16C81.7301 23.16 81.6901 23.13 81.6701 23.12C80.6601 22.23 80.5701 20.69 81.4501 19.68C82.3401 18.67 83.8801 18.57 84.9001 19.46C85.9101 20.35 86.0001 21.89 85.1101 22.91C84.8001 23.26 84.4201 23.49 84.0101 23.62L83.3801 27.95L87.5401 32.92L89.6901 18.01C89.6401 17.97 89.5901 17.93 89.5301 17.88C88.5201 16.99 88.4201 15.45 89.3101 14.44C90.2001 13.43 91.7401 13.33 92.7501 14.22C93.7601 15.11 93.8601 16.66 92.9701 17.66C92.7001 17.97 92.3601 18.2 91.9901 18.33L90.8001 26.6L94.2501 24.3L94.4901 22.52C94.4901 22.52 94.4001 22.45 94.3501 22.41C93.3401 21.52 93.2401 19.98 94.1301 18.97C95.0201 17.96 96.5601 17.86 97.5701 18.75C98.5801 19.64 98.6801 21.18 97.7901 22.19C97.5101 22.51 97.1601 22.74 96.7901 22.87L96.4201 25.65L90.3601 29.68L88.3501 43.62C94.4101 39.02 101.41 36.43 108.53 35.76C109.52 22.33 104.66 9.4 95.7601 -0.0299988C80.9701 4.86 68.9101 16.97 64.8001 33.2C64.5001 34.38 64.2601 35.55 64.0601 36.72C61.3901 34.66 58.3701 32.96 55.0501 31.73C43.6401 27.48 31.4001 29.69 22.3601 36.54C23.2701 40.8 24.9801 44.86 27.4001 48.47L27.4101 48.5ZM42.7601 41.09C43.8201 41.3 44.5701 42.16 44.7001 43.17L50.1901 45.28L63.7201 50.49C63.8301 51.38 63.8501 51.8 64.0001 52.68L63.5501 52.91L54.6001 57.05L49.0601 54.69C48.5401 55.08 47.8501 55.25 47.1601 55.11C45.8401 54.84 44.9901 53.56 45.2501 52.24C45.5201 50.92 46.8001 50.07 48.1201 50.33C49.2401 50.56 50.0201 51.51 50.0701 52.6L54.5701 54.51L60.5401 51.75L43.8801 45.33C43.3301 45.8 42.5801 46.02 41.8201 45.87C41.3501 45.78 40.9401 45.55 40.6201 45.24C40.0301 44.69 39.7401 43.85 39.9101 43C40.1801 41.68 41.4701 40.82 42.7801 41.09H42.7601Z" fill="black"/>
</g>
<path d="M448.156 72.7559C449.645 78.1372 453.681 80.8279 460.264 80.8279C464.501 80.8279 467.707 79.3967 469.882 76.5343L478.813 81.6866C474.577 87.8122 468.336 90.875 460.093 90.875C452.994 90.875 447.298 88.7281 443.004 84.4345C438.711 80.1409 436.564 74.731 436.564 68.2047C436.564 61.7356 438.682 56.3543 442.918 52.0607C447.155 47.7098 452.593 45.5344 459.234 45.5344C465.531 45.5344 470.712 47.7098 474.777 52.0607C478.899 56.4116 480.96 61.7929 480.96 68.2047C480.96 69.6359 480.817 71.153 480.53 72.7559H448.156ZM447.985 64.1687H469.882C469.252 61.249 467.936 59.0736 465.932 57.6424C463.986 56.2112 461.753 55.4956 459.234 55.4956C456.257 55.4956 453.795 56.2684 451.849 57.8141C449.903 59.3026 448.614 61.4208 447.985 64.1687Z" fill="black"/>
<path d="M423.458 46.7366H435.651L419.336 89.6727H406.712L390.397 46.7366H402.591L412.981 76.7919L423.458 46.7366Z" fill="black"/>
<path d="M382.997 84.3487C378.589 88.6995 373.207 90.875 366.853 90.875C360.498 90.875 355.117 88.6995 350.709 84.3487C346.358 79.9406 344.182 74.5592 344.182 68.2047C344.182 61.8501 346.358 56.4974 350.709 52.1466C355.117 47.7385 360.498 45.5344 366.853 45.5344C373.207 45.5344 378.589 47.7385 382.997 52.1466C387.405 56.4974 389.609 61.8501 389.609 68.2047C389.609 74.5592 387.405 79.9406 382.997 84.3487ZM358.523 76.706C360.756 78.9387 363.532 80.055 366.853 80.055C370.173 80.055 372.95 78.9387 375.182 76.706C377.415 74.4734 378.531 71.6396 378.531 68.2047C378.531 64.7698 377.415 61.936 375.182 59.7033C372.95 57.4707 370.173 56.3543 366.853 56.3543C363.532 56.3543 360.756 57.4707 358.523 59.7033C356.348 61.936 355.26 64.7698 355.26 68.2047C355.26 71.6396 356.348 74.4734 358.523 76.706Z" fill="black"/>
<path d="M328.996 54.1216C330.026 51.3737 331.715 49.3128 334.062 47.9388C336.467 46.5649 339.129 45.8779 342.048 45.8779V58.2435C338.671 57.8428 335.637 58.5297 332.946 60.3044C330.312 62.0791 328.996 65.0274 328.996 69.1493V89.6727H317.918V46.7366H328.996V54.1216Z" fill="black"/>
<path d="M297.573 46.7366H308.393V87.6118C308.393 94.2526 306.189 99.3191 301.78 102.811C297.43 106.303 292.163 108.049 285.98 108.049C281.343 108.049 277.25 107.162 273.7 105.387C270.208 103.613 267.517 101.008 265.628 97.573L275.074 92.163C277.25 96.1704 280.999 98.1741 286.323 98.1741C289.816 98.1741 292.563 97.2581 294.567 95.4262C296.571 93.5942 297.573 90.9894 297.573 87.6118V82.9747C294.31 87.3256 289.73 89.501 283.833 89.501C277.765 89.501 272.67 87.3828 268.548 83.1465C264.483 78.8528 262.451 73.6433 262.451 67.5177C262.451 61.4494 264.512 56.2684 268.634 51.9748C272.756 47.6812 277.822 45.5344 283.833 45.5344C289.73 45.5344 294.31 47.7098 297.573 52.0607V46.7366ZM276.877 76.0191C279.167 78.1945 282.058 79.2822 285.551 79.2822C289.043 79.2822 291.905 78.1945 294.138 76.0191C296.428 73.7864 297.573 70.9526 297.573 67.5177C297.573 64.1401 296.428 61.3635 294.138 59.1881C291.905 56.9554 289.043 55.8391 285.551 55.8391C282.058 55.8391 279.167 56.9554 276.877 59.1881C274.645 61.3635 273.528 64.1401 273.528 67.5177C273.528 70.9526 274.645 73.7864 276.877 76.0191Z" fill="black"/>
<path d="M258.734 57.3848H249.03V75.2462C249.03 76.7346 249.402 77.8224 250.146 78.5093C250.891 79.1963 251.978 79.5971 253.41 79.7116C254.841 79.7688 256.615 79.7402 258.734 79.6257V89.6727C251.12 90.5315 245.738 89.8159 242.59 87.5259C239.498 85.236 237.953 81.1428 237.953 75.2462V57.3848H230.482V46.7366H237.953V38.0635L249.03 34.7145V46.7366H258.734V57.3848Z" fill="black"/>
<path d="M218.973 41.5843C217.141 41.5843 215.538 40.9259 214.164 39.6092C212.847 38.2353 212.189 36.6323 212.189 34.8004C212.189 32.9684 212.847 31.3655 214.164 29.9915C215.538 28.6176 217.141 27.9306 218.973 27.9306C220.862 27.9306 222.465 28.6176 223.781 29.9915C225.155 31.3655 225.842 32.9684 225.842 34.8004C225.842 36.6323 225.155 38.2353 223.781 39.6092C222.465 40.9259 220.862 41.5843 218.973 41.5843ZM213.477 89.6727V46.7366H224.554V89.6727H213.477Z" fill="black"/>
<path d="M206.082 57.3848V62.0219C206.082 70.6091 203.334 77.5647 197.838 82.8888C192.343 88.2129 185.244 90.8749 176.542 90.8749C167.268 90.8749 159.568 87.8694 153.443 81.8584C147.374 75.79 144.34 68.405 144.34 59.7033C144.34 50.9444 147.346 43.5307 153.357 37.4624C159.425 31.3941 166.924 28.36 175.855 28.36C181.466 28.36 186.589 29.648 191.226 32.2242C195.863 34.7431 199.47 38.1208 202.046 42.3571L191.913 48.1964C190.482 45.7348 188.307 43.7311 185.387 42.1854C182.525 40.6397 179.319 39.8668 175.769 39.8668C170.045 39.8668 165.322 41.756 161.6 45.5344C157.937 49.2555 156.105 53.9785 156.105 59.7033C156.105 65.3709 157.965 70.0652 161.686 73.7864C165.465 77.4502 170.445 79.2822 176.628 79.2822C181.208 79.2822 184.986 78.2803 187.963 76.2767C190.997 74.2157 193.058 71.4106 194.146 67.8612H175.941V57.3848H206.082Z" fill="black"/>
<defs>
<clipPath id="clip0_5_136">
<rect width="121.34" height="123.98" fill="white"/>
</clipPath>
</defs>
</svg>
